<svg xmlns="http://www.w3.org/2000/svg" xmlns:xlink="http://www.w3.org/1999/xlink" viewBox="0 0 32 32" fill="#A5A5A0">
  <path d="M20 3C15.054688 3 11 7.054688 11 12C11 12.519531 11.085938 12.976563 11.15625 13.4375L3.28125 21.28125L3 21.59375L3 29L10 29L10 26L13 26L13 23L16 23L16 20.03125C17.179688 20.609375 18.554688 21 20 21C24.945313 21 29 16.945313 29 12C29 7.054688 24.945313 3 20 3 Z M 20 5C23.855469 5 27 8.144531 27 12C27 15.855469 23.855469 19 20 19C18.789063 19 17.542969 18.644531 16.59375 18.125L16.34375 18L14 18L14 21L11 21L11 24L8 24L8 27L5 27L5 22.4375L12.90625 14.5L13.28125 14.15625L13.1875 13.625C13.085938 13.023438 13 12.488281 13 12C13 8.144531 16.144531 5 20 5 Z M 22 8C20.894531 8 20 8.894531 20 10C20 11.105469 20.894531 12 22 12C23.105469 12 24 11.105469 24 10C24 8.894531 23.105469 8 22 8Z" fill="#A5A5A0" />
</svg>