<svg xmlns="http://www.w3.org/2000/svg" xmlns:xlink="http://www.w3.org/1999/xlink" viewBox="0 0 32 32" fill="#A5A5A0">
  <path d="M16 3C15.539063 3 15.0625 3.027344 14.546875 3.085938L14.765625 5.070313C15.210938 5.023438 15.613281 5 16 5C22.066406 5 27 9.933594 27 16C27 22.066406 22.066406 27 16 27C15.613281 27 15.214844 26.976563 14.777344 26.925781L14.554688 28.914063C15.066406 28.972656 15.539063 29 16 29C23.167969 29 29 23.167969 29 16C29 8.832031 23.167969 3 16 3 Z M 11.707031 3.738281C10.789063 4.058594 9.910156 4.488281 9.085938 5.003906L10.152344 6.695313C10.847656 6.257813 11.59375 5.898438 12.371094 5.625 Z M 6.804688 6.808594C6.144531 7.472656 5.535156 8.242188 5 9.09375L6.695313 10.15625C7.148438 9.429688 7.664063 8.78125 8.21875 8.222656 Z M 21.25 11.34375L14.875 18.621094L10.625 15.21875L9.375 16.78125L15.125 21.378906L22.75 12.65625 Z M 3.734375 11.714844C3.410156 12.652344 3.191406 13.605469 3.085938 14.550781L5.070313 14.769531C5.160156 13.976563 5.347656 13.167969 5.625 12.375 Z M 5.074219 17.234375L3.085938 17.457031C3.195313 18.40625 3.414063 19.359375 3.742188 20.296875L5.628906 19.632813C5.351563 18.839844 5.164063 18.035156 5.074219 17.234375 Z M 6.695313 21.851563L5.007813 22.917969C5.542969 23.765625 6.148438 24.535156 6.8125 25.199219L8.226563 23.78125C7.667969 23.222656 7.152344 22.574219 6.695313 21.851563 Z M 10.160156 25.3125L9.09375 27C9.917969 27.519531 10.796875 27.941406 11.71875 28.265625L12.375 26.375C11.597656 26.105469 10.851563 25.746094 10.160156 25.3125Z" fill="#A5A5A0" />
</svg>