<svg xmlns="http://www.w3.org/2000/svg" xmlns:xlink="http://www.w3.org/1999/xlink" viewBox="0 0 32 32" fill="#A5A5A0">
  <path d="M16 4C12.426807 4 9.1889768 5.5940841 7 8.1113281L7 5L5 5L5 12L12 12L12 10L8.0546875 10C9.8580114 7.5851367 12.758494 6 16 6C20.288652 6 23.809592 8.6271915 25.267578 12.363281L27.130859 11.636719C25.388846 7.1728084 21.111348 4 16 4 z M 6.7324219 19.636719L4.8691406 20.363281C6.6111543 24.827191 10.888652 28 16 28C19.599779 28 22.811088 26.3919 25 23.916016L25 27L27 27L27 20L20 20L20 22L23.96875 22C22.155848 24.387604 19.278082 26 16 26C11.711348 26 8.1904082 23.372809 6.7324219 19.636719 z" fill="#A5A5A0" />
</svg>