<svg xmlns="http://www.w3.org/2000/svg" xmlns:xlink="http://www.w3.org/1999/xlink" viewBox="0 0 48 48" fill="#AFAFA9">
  <path d="M41.960938 3.9804688 A 2.0002 2.0002 0 0 0 40.585938 4.5859375L28 17.171875L28 8 A 2.0002 2.0002 0 0 0 25.970703 5.9726562 A 2.0002 2.0002 0 0 0 24 8L24 22 A 2.0002 2.0002 0 0 0 26 24L40 24 A 2.0002 2.0002 0 1 0 40 20L30.828125 20L43.414062 7.4140625 A 2.0002 2.0002 0 0 0 41.960938 3.9804688 z M 7 25 A 2.0002 2.0002 0 1 0 7 29L16.171875 29L4.5859375 40.585938 A 2.0002 2.0002 0 1 0 7.4140625 43.414062L19 31.828125L19 41 A 2.0002 2.0002 0 1 0 23 41L23 27 A 2.0002 2.0002 0 0 0 21 25L7 25 z" fill="#AFAFA9" />
</svg>