<svg xmlns="http://www.w3.org/2000/svg" xmlns:xlink="http://www.w3.org/1999/xlink" viewBox="0 0 24 24" fill="#9DA8A8">
  <path d="M8 0.0703125L5 1.9453125L5 10L4 10C2.3550302 10 1 11.35503 1 13L1 24L23 24L23 13C23 11.35503 21.64497 10 20 10L19 10L19 1.9453125L16 0.0703125L14 1.3203125L12 0.0703125L10 1.3203125L8 0.0703125 z M 8 2.4296875L10 3.6796875L12 2.4296875L14 3.6796875L16 2.4296875L17 3.0546875L17 12L7 12L7 3.0546875L8 2.4296875 z M 8 5L8 7L16 7L16 5L8 5 z M 8 8L8 10L13 10L13 8L8 8 z M 4 12L5 12L5 14L19 14L19 13L19 12L20 12C20.56503 12 21 12.43497 21 13L21 22L3 22L3 13C3 12.43497 3.4349698 12 4 12 z M 5 17L5 19L7 19L7 17L5 17 z M 9 17L9 19L11 19L11 17L9 17 z M 13 17L13 19L15 19L15 17L13 17 z M 17 17L17 19L19 19L19 17L17 17 z" fill="#9DA8A8" />
</svg>