<svg xmlns="http://www.w3.org/2000/svg" xmlns:xlink="http://www.w3.org/1999/xlink" viewBox="0 0 32 32" fill="#A5A5A0">
  <path d="M15.875 4L15.78125 4.03125L4.78125 6.46875L4 6.65625L4 25.34375L4.78125 25.53125L15.78125 27.96875L15.875 28L18 28L18 25L28 25L28 7L18 7L18 4 Z M 16 6.03125L16 25.96875L6 23.78125L6 8.21875 Z M 18 9L26 9L26 23L18 23L18 21L25 21L25 19L18 19L18 18L25 18L25 16L18 16L18 15L25 15L25 13L18 13L18 12L25 12L25 10L18 10 Z M 15 11L13.4375 11.125C13.320313 11.917969 12.699219 16.195313 12.6875 16.53125L12.03125 11.3125L9.90625 11.625L9.0625 17.03125L8.5 11.8125L7 12L8 20L9.9375 20.3125L11.03125 13.90625C11.039063 14.265625 11.789063 19.21875 12 20.65625L13.46875 20.90625Z" fill="#A5A5A0" />
</svg>