<svg xmlns="http://www.w3.org/2000/svg" xmlns:xlink="http://www.w3.org/1999/xlink" viewBox="0 0 32 32" fill="#A5A5A0">
  <path d="M22.5625 4.21875L22.21875 6.1875L24.25 6.53125L19.96875 9.21875L18.9375 8.125L18.3125 7.46875L17.59375 8L12.46875 11.78125L11.59375 10.90625L10.96875 10.25L10.28125 10.8125L2.78125 16.8125L4.03125 18.375L10.8125 12.9375L11.6875 13.8125L12.3125 14.40625L13 13.90625L18.0625 10.125L19.0625 11.1875L19.625 11.78125L20.34375 11.34375L25.46875 8.125L24.9375 10.375L26.875 10.84375L27.96875 6.21875L28.21875 5.1875L27.15625 5 Z M 27 12L27 26L29 26L29 12 Z M 23 14L23 26L25 26L25 14 Z M 19 16L19 26L21 26L21 16 Z M 15 18L15 26L17 26L17 18 Z M 11 20L11 26L13 26L13 20 Z M 7 22L7 26L9 26L9 22 Z M 3 24L3 26L5 26L5 24Z" fill="#A5A5A0" />
</svg>