<svg xmlns="http://www.w3.org/2000/svg" xmlns:xlink="http://www.w3.org/1999/xlink" viewBox="0 0 24 24" fill="#9DA8A8">
  <path d="M4 4C2.895 4 2 4.895 2 6L2 7L22 7L22 6C22 4.895 21.105 4 20 4L4 4 z M 2 10L2 18C2 19.105 2.895 20 4 20L20 20C21.105 20 22 19.105 22 18L22 10L2 10 z M 15 13C15.366 13 15.705 13.106344 16 13.277344C16.295 13.106344 16.634 13 17 13C18.105 13 19 13.895 19 15C19 16.105 18.105 17 17 17C16.634 17 16.295 16.893656 16 16.722656C15.705 16.893656 15.366 17 15 17C13.895 17 13 16.105 13 15C13 13.895 13.895 13 15 13 z M 16 16.722656 A 1 1.723 0 0 0 17 15 A 1 1.723 0 0 0 16 13.277344 A 1 1.723 0 0 0 15 15 A 1 1.723 0 0 0 16 16.722656 z" fill="#9DA8A8" />
</svg>