<svg xmlns="http://www.w3.org/2000/svg" xmlns:xlink="http://www.w3.org/1999/xlink" viewBox="0 0 32 32" fill="#A5A5A0">
  <path d="M9 3L9 8.09375C8.457031 8.367188 8 8.695313 7.65625 9.125C7.222656 9.667969 7 10.335938 7 11C7 11.871094 7.15625 14.535156 7.34375 17.625C7.53125 20.714844 7.742188 24.132813 7.875 26.1875C7.976563 27.753906 9.304688 29 10.875 29L21.125 29C22.695313 29 24.023438 27.753906 24.125 26.1875C24.257813 24.128906 24.46875 20.71875 24.65625 17.625C24.84375 14.53125 25 11.851563 25 11C25 10.183594 24.640625 9.421875 24 8.8125L24 8.03125C24 7.585938 23.703125 7.171875 23.28125 7.03125L20.375 6.0625C19.703125 5.839844 19 6.355469 19 7.0625L19 7.15625C18.105469 7.070313 17.136719 7 16 7C13.929688 7 12.3125 7.121094 11 7.40625L11 3 Z M 16 9C18.835938 9 20.757813 9.316406 21.8125 9.75C22.867188 10.183594 23 10.496094 23 11C23 11.566406 22.84375 14.410156 22.65625 17.5C22.46875 20.589844 22.257813 24.003906 22.125 26.0625C22.089844 26.597656 21.660156 27 21.125 27L10.875 27C10.339844 27 9.910156 26.597656 9.875 26.0625C9.742188 24.011719 9.53125 20.617188 9.34375 17.53125C9.15625 14.445313 9 11.59375 9 11C9 10.726563 9.0625 10.570313 9.21875 10.375C9.375 10.179688 9.660156 9.933594 10.1875 9.71875C11.242188 9.292969 13.15625 9 16 9 Z M 12 12L12 14L20 14L20 12 Z M 12 15L12 17L20 17L20 15 Z M 12 18L12 20L20 20L20 18Z" fill="#A5A5A0" />
</svg>