<svg xmlns="http://www.w3.org/2000/svg" xmlns:xlink="http://www.w3.org/1999/xlink" viewBox="0 0 32 32" fill="#A5A5A0">
  <path d="M6 3L6 29L17 29L17 27L8 27L8 5L18 5L18 11L24 11L24 16L26 16L26 9.5859375L19.414062 3L6 3 z M 20 6.4140625L22.585938 9L20 9L20 6.4140625 z M 20.285156 13.462891L16 18.464844L12.570312 14.464844L9.2402344 18.349609L10.759766 19.650391L12.570312 17.535156L16 21.535156L19 18.037109L19 16L22.460938 16L20.285156 13.462891 z M 21 18L21 27L19 27L19 29C19 30.64497 20.35503 32 22 32L29 32C30.64497 32 32 30.64497 32 29L32 18L21 18 z M 23 20L30 20L30 29C30 29.56503 29.56503 30 29 30C28.43497 30 28 29.56503 28 29L28 28L28 27L23 27L23 20 z M 21 29L26 29C26 29.351843 26.07394 29.685108 26.1875 30L22 30C21.43497 30 21 29.56503 21 29 z" fill="#A5A5A0" />
</svg>