<svg xmlns="http://www.w3.org/2000/svg" xmlns:xlink="http://www.w3.org/1999/xlink" viewBox="0 0 32 32" fill="#A5A5A0">
  <path d="M16 2C8.2798536 2 2 8.2798593 2 16C2 23.720141 8.2798536 30 16 30C23.720146 30 30 23.720141 30 16C30 8.2798593 23.720146 2 16 2 z M 15 4.2011719L15 8L17 8L17 4.2011719C19.538842 4.4208194 21.80796 5.3925416 23.644531 6.9414062L20.953125 9.6328125L22.367188 11.046875L25.058594 8.3554688C26.607457 10.192042 27.579181 12.461159 27.798828 15L24 15L24 17L27.798828 17C27.267295 23.143843 22.284296 28 16 28C9.7157035 28 4.7327048 23.143843 4.2011719 17L8 17L8 15L4.2011719 15C4.420819 12.461159 5.3925432 10.192042 6.9414062 8.3554688L9.6328125 11.046875L11.046875 9.6328125L8.3554688 6.9414062C10.19204 5.3925417 12.461158 4.4208194 15 4.2011719 z M 21.683594 13.050781L17.324219 14.503906 A 2 2 0 0 0 16 14 A 2 2 0 0 0 16 18 A 2 2 0 0 0 17.957031 16.402344L22.316406 14.949219L21.683594 13.050781 z" fill="#A5A5A0" />
</svg>