<svg xmlns="http://www.w3.org/2000/svg" xmlns:xlink="http://www.w3.org/1999/xlink" viewBox="0 0 32 32" fill="#A5A5A0">
  <path d="M16 4C9.382813 4 4 9.382813 4 16C4 20.050781 6.011719 23.640625 9.09375 25.8125L10.25 24.1875C7.679688 22.378906 6 19.390625 6 16C6 10.464844 10.464844 6 16 6C21.535156 6 26 10.464844 26 16C26 19.390625 24.320313 22.375 21.75 24.1875L22.90625 25.8125C25.988281 23.640625 28 20.050781 28 16C28 9.382813 22.617188 4 16 4 Z M 15 12L15 24.1875L12.71875 21.90625L11.28125 23.34375L15.28125 27.34375L16 28.03125L16.71875 27.34375L20.71875 23.34375L19.28125 21.90625L17 24.1875L17 12Z" fill="#A5A5A0" />
</svg>