<svg xmlns="http://www.w3.org/2000/svg" xmlns:xlink="http://www.w3.org/1999/xlink" viewBox="0 0 32 32" fill="#A5A5A0">
  <path d="M16 6C14.894531 6 14 6.894531 14 8C14 9.105469 14.894531 10 16 10C17.105469 10 18 9.105469 18 8C18 6.894531 17.105469 6 16 6 Z M 16 14C14.894531 14 14 14.894531 14 16C14 17.105469 14.894531 18 16 18C17.105469 18 18 17.105469 18 16C18 14.894531 17.105469 14 16 14 Z M 16 22C14.894531 22 14 22.894531 14 24C14 25.105469 14.894531 26 16 26C17.105469 26 18 25.105469 18 24C18 22.894531 17.105469 22 16 22Z" fill="#A5A5A0" />
</svg>