<svg xmlns="http://www.w3.org/2000/svg" xmlns:xlink="http://www.w3.org/1999/xlink" viewBox="0 0 32 32" fill="#A5A5A0">
  <path d="M10.28125 5.28125L7 8.5625L5.71875 7.28125L4.28125 8.71875L6.28125 10.71875L7 11.40625L7.71875 10.71875L11.71875 6.71875 Z M 15 7L15 9L28 9L28 7 Z M 10.28125 13.28125L7 16.5625L5.71875 15.28125L4.28125 16.71875L6.28125 18.71875L7 19.40625L7.71875 18.71875L11.71875 14.71875 Z M 15 15L15 17L28 17L28 15 Z M 10.28125 21.28125L7 24.5625L5.71875 23.28125L4.28125 24.71875L6.28125 26.71875L7 27.40625L7.71875 26.71875L11.71875 22.71875 Z M 15 23L15 25L28 25L28 23Z" fill="#A5A5A0" />
</svg>