<svg xmlns="http://www.w3.org/2000/svg" xmlns:xlink="http://www.w3.org/1999/xlink" viewBox="0 0 32 32" fill="#A5A5A0">
  <path d="M15.875 4L15.78125 4.03125L4.78125 6.46875L4 6.65625L4 25.34375L4.78125 25.53125L15.78125 27.96875L15.875 28L18 28L18 25L28 25L28 7L18 7L18 4 Z M 16 6.03125L16 25.96875L6 23.78125L6 8.21875 Z M 18 9L26 9L26 23L18 23L18 21L20 21L20 19L18 19L18 18L20 18L20 16L18 16L18 15L20 15L20 13L18 13L18 12L20 12L20 10L18 10 Z M 21 10L21 12L25 12L25 10 Z M 14.15625 11L11.875 11.28125L10.625 13.96875C10.492188 14.355469 10.394531 14.648438 10.34375 14.84375L10.3125 14.84375C10.234375 14.519531 10.160156 14.238281 10.0625 14L9.4375 11.6875L7.3125 11.9375L7.21875 12L9 16L7 20L9.15625 20.25L10.03125 17.78125C10.136719 17.46875 10.222656 17.214844 10.25 17.0625L10.28125 17.0625C10.339844 17.386719 10.378906 17.628906 10.4375 17.75L11.78125 20.6875L14.21875 21L11.5625 15.96875 Z M 21 13L21 15L25 15L25 13 Z M 21 16L21 18L25 18L25 16 Z M 21 19L21 21L25 21L25 19Z" fill="#A5A5A0" />
</svg>