<svg xmlns="http://www.w3.org/2000/svg" xmlns:xlink="http://www.w3.org/1999/xlink" viewBox="0 0 16 16" fill="#9DA8A8">
  <path d="M2 1C1.453125 1 1 1.453125 1 2L1 13C1 13.546875 1.453125 14 2 14L5 14C5.546875 14 6 13.546875 6 13L6 2C6 1.453125 5.546875 1 5 1 Z M 2 2L5 2L5 5L2 5 Z M 3 3L3 4L4 4L4 3 Z M 7 3L7 4L14 4L14 3 Z M 2 6L5 6L5 9L2 9 Z M 3.5 7C3.222656 7 3 7.222656 3 7.5C3 7.777344 3.222656 8 3.5 8C3.777344 8 4 7.777344 4 7.5C4 7.222656 3.777344 7 3.5 7 Z M 7 7L7 8L14 8L14 7 Z M 2 10L5 10L5 13L2 13 Z M 3 11L3 12L4 12L4 11 Z M 7 11L7 12L14 12L14 11Z" fill="#9DA8A8" />
</svg>