<svg xmlns="http://www.w3.org/2000/svg" xmlns:xlink="http://www.w3.org/1999/xlink" viewBox="0 0 24 24" fill="#9DA8A8">
  <path d="M4.4160156 1.9960938L1.0039062 2.0136719L1.0136719 4.0136719L3.0839844 4.0039062L6.3789062 11.908203L5.1816406 13.822266C4.3432852 15.161017 5.3626785 17 6.9414062 17L19 17L19 15L6.9414062 15C6.8301342 15 6.8173041 14.978071 6.8769531 14.882812L8.0527344 13L15.521484 13C16.247484 13 16.917531 12.605703 17.269531 11.970703L20.871094 5.484375C21.242094 4.818375 20.760047 4 19.998047 4L5.25 4L4.4160156 1.9960938 z M 7 18 A 2 2 0 0 0 5 20 A 2 2 0 0 0 7 22 A 2 2 0 0 0 9 20 A 2 2 0 0 0 7 18 z M 17 18 A 2 2 0 0 0 15 20 A 2 2 0 0 0 17 22 A 2 2 0 0 0 19 20 A 2 2 0 0 0 17 18 z" fill="#9DA8A8" />
</svg>