<svg xmlns="http://www.w3.org/2000/svg" xmlns:xlink="http://www.w3.org/1999/xlink" viewBox="0 0 32 32" fill="#A5A5A0">
  <path d="M4 4L4 6L17 6L17 10L15 10L15 20L4 20L4 22L15 22L15 28L28 28L28 26L17 26L17 12L28 12L28 10L19 10L19 4L4 4 z M 7.7929688 8.7929688L3.5859375 13L7.7929688 17.207031L9.2070312 15.792969L7.4140625 14L8.5 14L13 14L13 12L8.5 12L7.4140625 12L9.2070312 10.207031L7.7929688 8.7929688 z M 24.207031 14.992188L22.792969 16.40625L24.386719 18L23.5 18L19 18L19 20L23.5 20L24.785156 20L22.792969 21.992188L24.207031 23.40625L28.414062 19.199219L24.207031 14.992188 z" fill="#A5A5A0" />
</svg>