<svg xmlns="http://www.w3.org/2000/svg" xmlns:xlink="http://www.w3.org/1999/xlink" viewBox="0 0 32 32" fill="#A5A5A0">
  <path d="M5.96875 3L5.65625 3.34375C5.65625 3.34375 4.898438 4 4.40625 4L4.40625 6C5.085938 6 5.554688 5.722656 6 5.46875L6 10L8 10L8 3 Z M 11 6L11 8L28 8L28 6 Z M 6.5 12C5.117188 12 4 13.117188 4 14.5L4 15L6 15L6 14.5C6 14.285156 6.285156 14 6.5 14C6.714844 14 7 14.285156 7 14.5L6.90625 14.59375L4.3125 17.09375L4 17.375L4 19L9 19L9 17L7.28125 17L8.15625 16.125L8.28125 16.03125L8.25 16C8.75 15.589844 9 14.980469 9 14.5C9 13.117188 7.882813 12 6.5 12 Z M 11 15L11 17L28 17L28 15 Z M 4 21L4 23L5.375 23L5.125 23.40625L5 23.625L5 25L6.5 25C6.714844 25 7 25.285156 7 25.5C7 25.714844 6.714844 26 6.5 26L4 26L4 28L6.5 28C7.882813 28 9 26.882813 9 25.5C9 24.496094 8.320313 23.804688 7.46875 23.40625L7.875 22.71875L8 22.46875L8 21 Z M 11 24L11 26L28 26L28 24Z" fill="#A5A5A0" />
</svg>