<svg xmlns="http://www.w3.org/2000/svg" xmlns:xlink="http://www.w3.org/1999/xlink" viewBox="0 0 26 26" fill="#9DA8A8">
  <path d="M3 4C1.34375 4 0 5.34375 0 7L0 19C0 20.65625 1.34375 22 3 22L23 22C24.65625 22 26 20.65625 26 19L26 7C26 5.34375 24.65625 4 23 4 Z M 3 6L23 6C23.550781 6 24 6.449219 24 7L24 7.5L13 13.4375L2 7.5L2 7C2 6.449219 2.449219 6 3 6 Z M 2 7.78125L8.53125 12.875L2.125 19.4375L9.9375 13.875L13 15.84375L16.0625 13.875L23.875 19.4375L17.46875 12.875L24 7.78125L24 19C24 19.164063 23.945313 19.300781 23.875 19.4375C23.710938 19.761719 23.390625 20 23 20L3 20C2.609375 20 2.289063 19.761719 2.125 19.4375C2.054688 19.300781 2 19.164063 2 19Z" fill="#9DA8A8" />
</svg>