<svg xmlns="http://www.w3.org/2000/svg" xmlns:xlink="http://www.w3.org/1999/xlink" viewBox="0 0 32 32" fill="#A5A5A0">
  <path d="M3 6L3 26L29 26L29 6 Z M 5 8L27 8L27 21.5625L19.21875 13.78125L18.5 13.09375L17.78125 13.78125L15.5 16.0625L11.71875 12.28125L11 11.59375L10.28125 12.28125L5 17.5625 Z M 22.5 9C21.132813 9 20 10.132813 20 11.5C20 12.867188 21.132813 14 22.5 14C23.867188 14 25 12.867188 25 11.5C25 10.132813 23.867188 9 22.5 9 Z M 22.5 11C22.789063 11 23 11.210938 23 11.5C23 11.789063 22.789063 12 22.5 12C22.210938 12 22 11.789063 22 11.5C22 11.210938 22.210938 11 22.5 11 Z M 11 14.4375L14.0625 17.5L7.5625 24L5 24L5 20.4375 Z M 18.5 15.9375L26.5625 24L10.4375 24Z" fill="#A5A5A0" />
</svg>