<svg xmlns="http://www.w3.org/2000/svg" xmlns:xlink="http://www.w3.org/1999/xlink" viewBox="0 0 32 32" fill="#A5A5A0">
  <path d="M10 3C5.59375 3 2 6.59375 2 11C2 13.949219 3.613281 16.519531 6 17.90625L6 27L28 27L28 7L23 7L23 6L21 6L21 7L16.90625 7C15.519531 4.613281 12.949219 3 10 3 Z M 10 5C13.324219 5 16 7.675781 16 11C16 14.324219 13.324219 17 10 17C6.675781 17 4 14.324219 4 11C4 7.675781 6.675781 5 10 5 Z M 9 7L9 11.5625L7.28125 13.28125L8.71875 14.71875L10.71875 12.71875L11 12.40625L11 7 Z M 17.71875 9L21 9L21 10L23 10L23 9L26 9L26 11L18 11C18 10.304688 17.886719 9.644531 17.71875 9 Z M 17.71875 13L26 13L26 25L8 25L8 18.71875C8.644531 18.886719 9.304688 19 10 19C13.710938 19 16.820313 16.4375 17.71875 13 Z M 18 17L18 19L20 19L20 17 Z M 22 17L22 19L24 19L24 17 Z M 10 21L10 23L12 23L12 21 Z M 14 21L14 23L16 23L16 21 Z M 18 21L18 23L20 23L20 21 Z M 22 21L22 23L24 23L24 21Z" fill="#A5A5A0" />
</svg>